<svg id="Calque_1" data-name="Calque 1" xmlns="http://www.w3.org/2000/svg" viewBox="0 0 448.02 512"><defs><style>.cls-1{fill:#533273;}</style></defs><path class="cls-1" d="M477.19,307A32,32,0,0,0,448,288H384V176A176,176,0,0,0,208,0c-113.3,0-163.9,81.5-174.1,100.2a16.39,16.39,0,0,0-1.9,8.1A19.74,19.74,0,0,0,51.69,128c7.5,0,14.4-4.3,19.5-9.8,8.9-9.4,26.4-22.2,56.8-22.2a96,96,0,0,1,96,96v96H160a32,32,0,0,0-23.8,53.4l144,160A32.2,32.2,0,0,0,304,512a31.84,31.84,0,0,0,23.8-10.6l144-160a31.76,31.76,0,0,0,5.4-34.4Z" transform="translate(-31.99 0.01)"/></svg>